<?xml version="1.0" encoding="utf-8" standalone="no"?>
<!DOCTYPE svg PUBLIC "-//W3C//DTD SVG 1.1//EN"
  "http://www.w3.org/Graphics/SVG/1.1/DTD/svg11.dtd">
<svg xmlns:xlink="http://www.w3.org/1999/xlink" width="460.8pt" height="345.6pt" viewBox="0 0 460.8 345.6" xmlns="http://www.w3.org/2000/svg" version="1.1">
 <metadata>
  <rdf:RDF xmlns:dc="http://purl.org/dc/elements/1.1/" xmlns:cc="http://creativecommons.org/ns#" xmlns:rdf="http://www.w3.org/1999/02/22-rdf-syntax-ns#">
   <cc:Work>
    <dc:type rdf:resource="http://purl.org/dc/dcmitype/StillImage"/>
    <dc:date>2024-11-29T13:46:42.909112</dc:date>
    <dc:format>image/svg+xml</dc:format>
    <dc:creator>
     <cc:Agent>
      <dc:title>Matplotlib v3.9.2, https://matplotlib.org/</dc:title>
     </cc:Agent>
    </dc:creator>
   </cc:Work>
  </rdf:RDF>
 </metadata>
 <defs>
  <style type="text/css">*{stroke-linejoin: round; stroke-linecap: butt}</style>
 </defs>
 <g id="figure_1">
  <g id="patch_1">
   <path d="M 0 345.6 
L 460.8 345.6 
L 460.8 0 
L 0 0 
z
" style="fill: #ffffff"/>
  </g>
  <g id="axes_1">
   <g id="patch_2">
    <path d="M 78.39 287.64 
L 450 287.64 
L 450 56.832 
L 78.39 56.832 
z
" style="fill: #ffffff"/>
   </g>
   <g id="matplotlib.axis_1">
    <g id="xtick_1">
     <g id="line2d_1">
      <defs>
       <path id="me4b8c72f92" d="M 0 0 
L 0 3.5 
" style="stroke: #000000; stroke-width: 0.8"/>
      </defs>
      <g>
       <use xlink:href="#me4b8c72f92" x="95.281364" y="287.64" style="stroke: #000000; stroke-width: 0.8"/>
      </g>
     </g>
     <g id="text_1">
      <!-- 0 -->
      <g transform="translate(92.100114 302.238437) scale(0.1 -0.1)">
       <defs>
        <path id="DejaVuSans-30" d="M 2034 4250 
Q 1547 4250 1301 3770 
Q 1056 3291 1056 2328 
Q 1056 1369 1301 889 
Q 1547 409 2034 409 
Q 2525 409 2770 889 
Q 3016 1369 3016 2328 
Q 3016 3291 2770 3770 
Q 2525 4250 2034 4250 
z
M 2034 4750 
Q 2819 4750 3233 4129 
Q 3647 3509 3647 2328 
Q 3647 1150 3233 529 
Q 2819 -91 2034 -91 
Q 1250 -91 836 529 
Q 422 1150 422 2328 
Q 422 3509 836 4129 
Q 1250 4750 2034 4750 
z
" transform="scale(0.015625)"/>
       </defs>
       <use xlink:href="#DejaVuSans-30"/>
      </g>
     </g>
    </g>
    <g id="xtick_2">
     <g id="line2d_2">
      <g>
       <use xlink:href="#me4b8c72f92" x="161.263253" y="287.64" style="stroke: #000000; stroke-width: 0.8"/>
      </g>
     </g>
     <g id="text_2">
      <!-- 100 -->
      <g transform="translate(151.719503 302.238437) scale(0.1 -0.1)">
       <defs>
        <path id="DejaVuSans-31" d="M 794 531 
L 1825 531 
L 1825 4091 
L 703 3866 
L 703 4441 
L 1819 4666 
L 2450 4666 
L 2450 531 
L 3481 531 
L 3481 0 
L 794 0 
L 794 531 
z
" transform="scale(0.015625)"/>
       </defs>
       <use xlink:href="#DejaVuSans-31"/>
       <use xlink:href="#DejaVuSans-30" x="63.623047"/>
       <use xlink:href="#DejaVuSans-30" x="127.246094"/>
      </g>
     </g>
    </g>
    <g id="xtick_3">
     <g id="line2d_3">
      <g>
       <use xlink:href="#me4b8c72f92" x="227.245142" y="287.64" style="stroke: #000000; stroke-width: 0.8"/>
      </g>
     </g>
     <g id="text_3">
      <!-- 200 -->
      <g transform="translate(217.701392 302.238437) scale(0.1 -0.1)">
       <defs>
        <path id="DejaVuSans-32" d="M 1228 531 
L 3431 531 
L 3431 0 
L 469 0 
L 469 531 
Q 828 903 1448 1529 
Q 2069 2156 2228 2338 
Q 2531 2678 2651 2914 
Q 2772 3150 2772 3378 
Q 2772 3750 2511 3984 
Q 2250 4219 1831 4219 
Q 1534 4219 1204 4116 
Q 875 4013 500 3803 
L 500 4441 
Q 881 4594 1212 4672 
Q 1544 4750 1819 4750 
Q 2544 4750 2975 4387 
Q 3406 4025 3406 3419 
Q 3406 3131 3298 2873 
Q 3191 2616 2906 2266 
Q 2828 2175 2409 1742 
Q 1991 1309 1228 531 
z
" transform="scale(0.015625)"/>
       </defs>
       <use xlink:href="#DejaVuSans-32"/>
       <use xlink:href="#DejaVuSans-30" x="63.623047"/>
       <use xlink:href="#DejaVuSans-30" x="127.246094"/>
      </g>
     </g>
    </g>
    <g id="xtick_4">
     <g id="line2d_4">
      <g>
       <use xlink:href="#me4b8c72f92" x="293.227031" y="287.64" style="stroke: #000000; stroke-width: 0.8"/>
      </g>
     </g>
     <g id="text_4">
      <!-- 300 -->
      <g transform="translate(283.683281 302.238437) scale(0.1 -0.1)">
       <defs>
        <path id="DejaVuSans-33" d="M 2597 2516 
Q 3050 2419 3304 2112 
Q 3559 1806 3559 1356 
Q 3559 666 3084 287 
Q 2609 -91 1734 -91 
Q 1441 -91 1130 -33 
Q 819 25 488 141 
L 488 750 
Q 750 597 1062 519 
Q 1375 441 1716 441 
Q 2309 441 2620 675 
Q 2931 909 2931 1356 
Q 2931 1769 2642 2001 
Q 2353 2234 1838 2234 
L 1294 2234 
L 1294 2753 
L 1863 2753 
Q 2328 2753 2575 2939 
Q 2822 3125 2822 3475 
Q 2822 3834 2567 4026 
Q 2313 4219 1838 4219 
Q 1578 4219 1281 4162 
Q 984 4106 628 3988 
L 628 4550 
Q 988 4650 1302 4700 
Q 1616 4750 1894 4750 
Q 2613 4750 3031 4423 
Q 3450 4097 3450 3541 
Q 3450 3153 3228 2886 
Q 3006 2619 2597 2516 
z
" transform="scale(0.015625)"/>
       </defs>
       <use xlink:href="#DejaVuSans-33"/>
       <use xlink:href="#DejaVuSans-30" x="63.623047"/>
       <use xlink:href="#DejaVuSans-30" x="127.246094"/>
      </g>
     </g>
    </g>
    <g id="xtick_5">
     <g id="line2d_5">
      <g>
       <use xlink:href="#me4b8c72f92" x="359.20892" y="287.64" style="stroke: #000000; stroke-width: 0.8"/>
      </g>
     </g>
     <g id="text_5">
      <!-- 400 -->
      <g transform="translate(349.66517 302.238437) scale(0.1 -0.1)">
       <defs>
        <path id="DejaVuSans-34" d="M 2419 4116 
L 825 1625 
L 2419 1625 
L 2419 4116 
z
M 2253 4666 
L 3047 4666 
L 3047 1625 
L 3713 1625 
L 3713 1100 
L 3047 1100 
L 3047 0 
L 2419 0 
L 2419 1100 
L 313 1100 
L 313 1709 
L 2253 4666 
z
" transform="scale(0.015625)"/>
       </defs>
       <use xlink:href="#DejaVuSans-34"/>
       <use xlink:href="#DejaVuSans-30" x="63.623047"/>
       <use xlink:href="#DejaVuSans-30" x="127.246094"/>
      </g>
     </g>
    </g>
    <g id="xtick_6">
     <g id="line2d_6">
      <g>
       <use xlink:href="#me4b8c72f92" x="425.19081" y="287.64" style="stroke: #000000; stroke-width: 0.8"/>
      </g>
     </g>
     <g id="text_6">
      <!-- 500 -->
      <g transform="translate(415.64706 302.238437) scale(0.1 -0.1)">
       <defs>
        <path id="DejaVuSans-35" d="M 691 4666 
L 3169 4666 
L 3169 4134 
L 1269 4134 
L 1269 2991 
Q 1406 3038 1543 3061 
Q 1681 3084 1819 3084 
Q 2600 3084 3056 2656 
Q 3513 2228 3513 1497 
Q 3513 744 3044 326 
Q 2575 -91 1722 -91 
Q 1428 -91 1123 -41 
Q 819 9 494 109 
L 494 744 
Q 775 591 1075 516 
Q 1375 441 1709 441 
Q 2250 441 2565 725 
Q 2881 1009 2881 1497 
Q 2881 1984 2565 2268 
Q 2250 2553 1709 2553 
Q 1456 2553 1204 2497 
Q 953 2441 691 2322 
L 691 4666 
z
" transform="scale(0.015625)"/>
       </defs>
       <use xlink:href="#DejaVuSans-35"/>
       <use xlink:href="#DejaVuSans-30" x="63.623047"/>
       <use xlink:href="#DejaVuSans-30" x="127.246094"/>
      </g>
     </g>
    </g>
    <g id="text_7">
     <!-- Tid [SampleIndex] -->
     <g transform="translate(218.728594 331.916562) scale(0.1 -0.1)">
      <defs>
       <path id="DejaVuSans-54" d="M -19 4666 
L 3928 4666 
L 3928 4134 
L 2272 4134 
L 2272 0 
L 1638 0 
L 1638 4134 
L -19 4134 
L -19 4666 
z
" transform="scale(0.015625)"/>
       <path id="DejaVuSans-69" d="M 603 3500 
L 1178 3500 
L 1178 0 
L 603 0 
L 603 3500 
z
M 603 4863 
L 1178 4863 
L 1178 4134 
L 603 4134 
L 603 4863 
z
" transform="scale(0.015625)"/>
       <path id="DejaVuSans-64" d="M 2906 2969 
L 2906 4863 
L 3481 4863 
L 3481 0 
L 2906 0 
L 2906 525 
Q 2725 213 2448 61 
Q 2172 -91 1784 -91 
Q 1150 -91 751 415 
Q 353 922 353 1747 
Q 353 2572 751 3078 
Q 1150 3584 1784 3584 
Q 2172 3584 2448 3432 
Q 2725 3281 2906 2969 
z
M 947 1747 
Q 947 1113 1208 752 
Q 1469 391 1925 391 
Q 2381 391 2643 752 
Q 2906 1113 2906 1747 
Q 2906 2381 2643 2742 
Q 2381 3103 1925 3103 
Q 1469 3103 1208 2742 
Q 947 2381 947 1747 
z
" transform="scale(0.015625)"/>
       <path id="DejaVuSans-20" transform="scale(0.015625)"/>
       <path id="DejaVuSans-5b" d="M 550 4863 
L 1875 4863 
L 1875 4416 
L 1125 4416 
L 1125 -397 
L 1875 -397 
L 1875 -844 
L 550 -844 
L 550 4863 
z
" transform="scale(0.015625)"/>
       <path id="DejaVuSans-53" d="M 3425 4513 
L 3425 3897 
Q 3066 4069 2747 4153 
Q 2428 4238 2131 4238 
Q 1616 4238 1336 4038 
Q 1056 3838 1056 3469 
Q 1056 3159 1242 3001 
Q 1428 2844 1947 2747 
L 2328 2669 
Q 3034 2534 3370 2195 
Q 3706 1856 3706 1288 
Q 3706 609 3251 259 
Q 2797 -91 1919 -91 
Q 1588 -91 1214 -16 
Q 841 59 441 206 
L 441 856 
Q 825 641 1194 531 
Q 1563 422 1919 422 
Q 2459 422 2753 634 
Q 3047 847 3047 1241 
Q 3047 1584 2836 1778 
Q 2625 1972 2144 2069 
L 1759 2144 
Q 1053 2284 737 2584 
Q 422 2884 422 3419 
Q 422 4038 858 4394 
Q 1294 4750 2059 4750 
Q 2388 4750 2728 4690 
Q 3069 4631 3425 4513 
z
" transform="scale(0.015625)"/>
       <path id="DejaVuSans-61" d="M 2194 1759 
Q 1497 1759 1228 1600 
Q 959 1441 959 1056 
Q 959 750 1161 570 
Q 1363 391 1709 391 
Q 2188 391 2477 730 
Q 2766 1069 2766 1631 
L 2766 1759 
L 2194 1759 
z
M 3341 1997 
L 3341 0 
L 2766 0 
L 2766 531 
Q 2569 213 2275 61 
Q 1981 -91 1556 -91 
Q 1019 -91 701 211 
Q 384 513 384 1019 
Q 384 1609 779 1909 
Q 1175 2209 1959 2209 
L 2766 2209 
L 2766 2266 
Q 2766 2663 2505 2880 
Q 2244 3097 1772 3097 
Q 1472 3097 1187 3025 
Q 903 2953 641 2809 
L 641 3341 
Q 956 3463 1253 3523 
Q 1550 3584 1831 3584 
Q 2591 3584 2966 3190 
Q 3341 2797 3341 1997 
z
" transform="scale(0.015625)"/>
       <path id="DejaVuSans-6d" d="M 3328 2828 
Q 3544 3216 3844 3400 
Q 4144 3584 4550 3584 
Q 5097 3584 5394 3201 
Q 5691 2819 5691 2113 
L 5691 0 
L 5113 0 
L 5113 2094 
Q 5113 2597 4934 2840 
Q 4756 3084 4391 3084 
Q 3944 3084 3684 2787 
Q 3425 2491 3425 1978 
L 3425 0 
L 2847 0 
L 2847 2094 
Q 2847 2600 2669 2842 
Q 2491 3084 2119 3084 
Q 1678 3084 1418 2786 
Q 1159 2488 1159 1978 
L 1159 0 
L 581 0 
L 581 3500 
L 1159 3500 
L 1159 2956 
Q 1356 3278 1631 3431 
Q 1906 3584 2284 3584 
Q 2666 3584 2933 3390 
Q 3200 3197 3328 2828 
z
" transform="scale(0.015625)"/>
       <path id="DejaVuSans-70" d="M 1159 525 
L 1159 -1331 
L 581 -1331 
L 581 3500 
L 1159 3500 
L 1159 2969 
Q 1341 3281 1617 3432 
Q 1894 3584 2278 3584 
Q 2916 3584 3314 3078 
Q 3713 2572 3713 1747 
Q 3713 922 3314 415 
Q 2916 -91 2278 -91 
Q 1894 -91 1617 61 
Q 1341 213 1159 525 
z
M 3116 1747 
Q 3116 2381 2855 2742 
Q 2594 3103 2138 3103 
Q 1681 3103 1420 2742 
Q 1159 2381 1159 1747 
Q 1159 1113 1420 752 
Q 1681 391 2138 391 
Q 2594 391 2855 752 
Q 3116 1113 3116 1747 
z
" transform="scale(0.015625)"/>
       <path id="DejaVuSans-6c" d="M 603 4863 
L 1178 4863 
L 1178 0 
L 603 0 
L 603 4863 
z
" transform="scale(0.015625)"/>
       <path id="DejaVuSans-65" d="M 3597 1894 
L 3597 1613 
L 953 1613 
Q 991 1019 1311 708 
Q 1631 397 2203 397 
Q 2534 397 2845 478 
Q 3156 559 3463 722 
L 3463 178 
Q 3153 47 2828 -22 
Q 2503 -91 2169 -91 
Q 1331 -91 842 396 
Q 353 884 353 1716 
Q 353 2575 817 3079 
Q 1281 3584 2069 3584 
Q 2775 3584 3186 3129 
Q 3597 2675 3597 1894 
z
M 3022 2063 
Q 3016 2534 2758 2815 
Q 2500 3097 2075 3097 
Q 1594 3097 1305 2825 
Q 1016 2553 972 2059 
L 3022 2063 
z
" transform="scale(0.015625)"/>
       <path id="DejaVuSans-49" d="M 628 4666 
L 1259 4666 
L 1259 0 
L 628 0 
L 628 4666 
z
" transform="scale(0.015625)"/>
       <path id="DejaVuSans-6e" d="M 3513 2113 
L 3513 0 
L 2938 0 
L 2938 2094 
Q 2938 2591 2744 2837 
Q 2550 3084 2163 3084 
Q 1697 3084 1428 2787 
Q 1159 2491 1159 1978 
L 1159 0 
L 581 0 
L 581 3500 
L 1159 3500 
L 1159 2956 
Q 1366 3272 1645 3428 
Q 1925 3584 2291 3584 
Q 2894 3584 3203 3211 
Q 3513 2838 3513 2113 
z
" transform="scale(0.015625)"/>
       <path id="DejaVuSans-78" d="M 3513 3500 
L 2247 1797 
L 3578 0 
L 2900 0 
L 1881 1375 
L 863 0 
L 184 0 
L 1544 1831 
L 300 3500 
L 978 3500 
L 1906 2253 
L 2834 3500 
L 3513 3500 
z
" transform="scale(0.015625)"/>
       <path id="DejaVuSans-5d" d="M 1947 4863 
L 1947 -844 
L 622 -844 
L 622 -397 
L 1369 -397 
L 1369 4416 
L 622 4416 
L 622 4863 
L 1947 4863 
z
" transform="scale(0.015625)"/>
      </defs>
      <use xlink:href="#DejaVuSans-54"/>
      <use xlink:href="#DejaVuSans-69" x="57.958984"/>
      <use xlink:href="#DejaVuSans-64" x="85.742188"/>
      <use xlink:href="#DejaVuSans-20" x="149.21875"/>
      <use xlink:href="#DejaVuSans-5b" x="181.005859"/>
      <use xlink:href="#DejaVuSans-53" x="220.019531"/>
      <use xlink:href="#DejaVuSans-61" x="283.496094"/>
      <use xlink:href="#DejaVuSans-6d" x="344.775391"/>
      <use xlink:href="#DejaVuSans-70" x="442.1875"/>
      <use xlink:href="#DejaVuSans-6c" x="505.664062"/>
      <use xlink:href="#DejaVuSans-65" x="533.447266"/>
      <use xlink:href="#DejaVuSans-49" x="594.970703"/>
      <use xlink:href="#DejaVuSans-6e" x="624.462891"/>
      <use xlink:href="#DejaVuSans-64" x="687.841797"/>
      <use xlink:href="#DejaVuSans-65" x="751.318359"/>
      <use xlink:href="#DejaVuSans-78" x="811.091797"/>
      <use xlink:href="#DejaVuSans-5d" x="870.271484"/>
     </g>
    </g>
   </g>
   <g id="matplotlib.axis_2">
    <g id="ytick_1">
     <g id="line2d_7">
      <defs>
       <path id="ma0726ddd23" d="M 0 0 
L -3.5 0 
" style="stroke: #000000; stroke-width: 0.8"/>
      </defs>
      <g>
       <use xlink:href="#ma0726ddd23" x="78.39" y="278.225442" style="stroke: #000000; stroke-width: 0.8"/>
      </g>
     </g>
     <g id="text_8">
      <!-- −1.00 -->
      <g transform="translate(40.744688 282.024661) scale(0.1 -0.1)">
       <defs>
        <path id="DejaVuSans-2212" d="M 678 2272 
L 4684 2272 
L 4684 1741 
L 678 1741 
L 678 2272 
z
" transform="scale(0.015625)"/>
        <path id="DejaVuSans-2e" d="M 684 794 
L 1344 794 
L 1344 0 
L 684 0 
L 684 794 
z
" transform="scale(0.015625)"/>
       </defs>
       <use xlink:href="#DejaVuSans-2212"/>
       <use xlink:href="#DejaVuSans-31" x="83.789062"/>
       <use xlink:href="#DejaVuSans-2e" x="147.412109"/>
       <use xlink:href="#DejaVuSans-30" x="179.199219"/>
       <use xlink:href="#DejaVuSans-30" x="242.822266"/>
      </g>
     </g>
    </g>
    <g id="ytick_2">
     <g id="line2d_8">
      <g>
       <use xlink:href="#ma0726ddd23" x="78.39" y="251.701269" style="stroke: #000000; stroke-width: 0.8"/>
      </g>
     </g>
     <g id="text_9">
      <!-- −0.75 -->
      <g transform="translate(40.744688 255.500488) scale(0.1 -0.1)">
       <defs>
        <path id="DejaVuSans-37" d="M 525 4666 
L 3525 4666 
L 3525 4397 
L 1831 0 
L 1172 0 
L 2766 4134 
L 525 4134 
L 525 4666 
z
" transform="scale(0.015625)"/>
       </defs>
       <use xlink:href="#DejaVuSans-2212"/>
       <use xlink:href="#DejaVuSans-30" x="83.789062"/>
       <use xlink:href="#DejaVuSans-2e" x="147.412109"/>
       <use xlink:href="#DejaVuSans-37" x="179.199219"/>
       <use xlink:href="#DejaVuSans-35" x="242.822266"/>
      </g>
     </g>
    </g>
    <g id="ytick_3">
     <g id="line2d_9">
      <g>
       <use xlink:href="#ma0726ddd23" x="78.39" y="225.177097" style="stroke: #000000; stroke-width: 0.8"/>
      </g>
     </g>
     <g id="text_10">
      <!-- −0.50 -->
      <g transform="translate(40.744688 228.976315) scale(0.1 -0.1)">
       <use xlink:href="#DejaVuSans-2212"/>
       <use xlink:href="#DejaVuSans-30" x="83.789062"/>
       <use xlink:href="#DejaVuSans-2e" x="147.412109"/>
       <use xlink:href="#DejaVuSans-35" x="179.199219"/>
       <use xlink:href="#DejaVuSans-30" x="242.822266"/>
      </g>
     </g>
    </g>
    <g id="ytick_4">
     <g id="line2d_10">
      <g>
       <use xlink:href="#ma0726ddd23" x="78.39" y="198.652924" style="stroke: #000000; stroke-width: 0.8"/>
      </g>
     </g>
     <g id="text_11">
      <!-- −0.25 -->
      <g transform="translate(40.744688 202.452143) scale(0.1 -0.1)">
       <use xlink:href="#DejaVuSans-2212"/>
       <use xlink:href="#DejaVuSans-30" x="83.789062"/>
       <use xlink:href="#DejaVuSans-2e" x="147.412109"/>
       <use xlink:href="#DejaVuSans-32" x="179.199219"/>
       <use xlink:href="#DejaVuSans-35" x="242.822266"/>
      </g>
     </g>
    </g>
    <g id="ytick_5">
     <g id="line2d_11">
      <g>
       <use xlink:href="#ma0726ddd23" x="78.39" y="172.128752" style="stroke: #000000; stroke-width: 0.8"/>
      </g>
     </g>
     <g id="text_12">
      <!-- 0.00 -->
      <g transform="translate(49.124375 175.92797) scale(0.1 -0.1)">
       <use xlink:href="#DejaVuSans-30"/>
       <use xlink:href="#DejaVuSans-2e" x="63.623047"/>
       <use xlink:href="#DejaVuSans-30" x="95.410156"/>
       <use xlink:href="#DejaVuSans-30" x="159.033203"/>
      </g>
     </g>
    </g>
    <g id="ytick_6">
     <g id="line2d_12">
      <g>
       <use xlink:href="#ma0726ddd23" x="78.39" y="145.604579" style="stroke: #000000; stroke-width: 0.8"/>
      </g>
     </g>
     <g id="text_13">
      <!-- 0.25 -->
      <g transform="translate(49.124375 149.403798) scale(0.1 -0.1)">
       <use xlink:href="#DejaVuSans-30"/>
       <use xlink:href="#DejaVuSans-2e" x="63.623047"/>
       <use xlink:href="#DejaVuSans-32" x="95.410156"/>
       <use xlink:href="#DejaVuSans-35" x="159.033203"/>
      </g>
     </g>
    </g>
    <g id="ytick_7">
     <g id="line2d_13">
      <g>
       <use xlink:href="#ma0726ddd23" x="78.39" y="119.080406" style="stroke: #000000; stroke-width: 0.8"/>
      </g>
     </g>
     <g id="text_14">
      <!-- 0.50 -->
      <g transform="translate(49.124375 122.879625) scale(0.1 -0.1)">
       <use xlink:href="#DejaVuSans-30"/>
       <use xlink:href="#DejaVuSans-2e" x="63.623047"/>
       <use xlink:href="#DejaVuSans-35" x="95.410156"/>
       <use xlink:href="#DejaVuSans-30" x="159.033203"/>
      </g>
     </g>
    </g>
    <g id="ytick_8">
     <g id="line2d_14">
      <g>
       <use xlink:href="#ma0726ddd23" x="78.39" y="92.556234" style="stroke: #000000; stroke-width: 0.8"/>
      </g>
     </g>
     <g id="text_15">
      <!-- 0.75 -->
      <g transform="translate(49.124375 96.355453) scale(0.1 -0.1)">
       <use xlink:href="#DejaVuSans-30"/>
       <use xlink:href="#DejaVuSans-2e" x="63.623047"/>
       <use xlink:href="#DejaVuSans-37" x="95.410156"/>
       <use xlink:href="#DejaVuSans-35" x="159.033203"/>
      </g>
     </g>
    </g>
    <g id="ytick_9">
     <g id="line2d_15">
      <g>
       <use xlink:href="#ma0726ddd23" x="78.39" y="66.032061" style="stroke: #000000; stroke-width: 0.8"/>
      </g>
     </g>
     <g id="text_16">
      <!-- 1.00 -->
      <g transform="translate(49.124375 69.83128) scale(0.1 -0.1)">
       <use xlink:href="#DejaVuSans-31"/>
       <use xlink:href="#DejaVuSans-2e" x="63.623047"/>
       <use xlink:href="#DejaVuSans-30" x="95.410156"/>
       <use xlink:href="#DejaVuSans-30" x="159.033203"/>
      </g>
     </g>
    </g>
    <g id="text_17">
     <!-- Magnitude -->
     <g transform="translate(18.665 198.725844) rotate(-90) scale(0.1 -0.1)">
      <defs>
       <path id="DejaVuSans-4d" d="M 628 4666 
L 1569 4666 
L 2759 1491 
L 3956 4666 
L 4897 4666 
L 4897 0 
L 4281 0 
L 4281 4097 
L 3078 897 
L 2444 897 
L 1241 4097 
L 1241 0 
L 628 0 
L 628 4666 
z
" transform="scale(0.015625)"/>
       <path id="DejaVuSans-67" d="M 2906 1791 
Q 2906 2416 2648 2759 
Q 2391 3103 1925 3103 
Q 1463 3103 1205 2759 
Q 947 2416 947 1791 
Q 947 1169 1205 825 
Q 1463 481 1925 481 
Q 2391 481 2648 825 
Q 2906 1169 2906 1791 
z
M 3481 434 
Q 3481 -459 3084 -895 
Q 2688 -1331 1869 -1331 
Q 1566 -1331 1297 -1286 
Q 1028 -1241 775 -1147 
L 775 -588 
Q 1028 -725 1275 -790 
Q 1522 -856 1778 -856 
Q 2344 -856 2625 -561 
Q 2906 -266 2906 331 
L 2906 616 
Q 2728 306 2450 153 
Q 2172 0 1784 0 
Q 1141 0 747 490 
Q 353 981 353 1791 
Q 353 2603 747 3093 
Q 1141 3584 1784 3584 
Q 2172 3584 2450 3431 
Q 2728 3278 2906 2969 
L 2906 3500 
L 3481 3500 
L 3481 434 
z
" transform="scale(0.015625)"/>
       <path id="DejaVuSans-74" d="M 1172 4494 
L 1172 3500 
L 2356 3500 
L 2356 3053 
L 1172 3053 
L 1172 1153 
Q 1172 725 1289 603 
Q 1406 481 1766 481 
L 2356 481 
L 2356 0 
L 1766 0 
Q 1100 0 847 248 
Q 594 497 594 1153 
L 594 3053 
L 172 3053 
L 172 3500 
L 594 3500 
L 594 4494 
L 1172 4494 
z
" transform="scale(0.015625)"/>
       <path id="DejaVuSans-75" d="M 544 1381 
L 544 3500 
L 1119 3500 
L 1119 1403 
Q 1119 906 1312 657 
Q 1506 409 1894 409 
Q 2359 409 2629 706 
Q 2900 1003 2900 1516 
L 2900 3500 
L 3475 3500 
L 3475 0 
L 2900 0 
L 2900 538 
Q 2691 219 2414 64 
Q 2138 -91 1772 -91 
Q 1169 -91 856 284 
Q 544 659 544 1381 
z
M 1991 3584 
L 1991 3584 
z
" transform="scale(0.015625)"/>
      </defs>
      <use xlink:href="#DejaVuSans-4d"/>
      <use xlink:href="#DejaVuSans-61" x="86.279297"/>
      <use xlink:href="#DejaVuSans-67" x="147.558594"/>
      <use xlink:href="#DejaVuSans-6e" x="211.035156"/>
      <use xlink:href="#DejaVuSans-69" x="274.414062"/>
      <use xlink:href="#DejaVuSans-74" x="302.197266"/>
      <use xlink:href="#DejaVuSans-75" x="341.40625"/>
      <use xlink:href="#DejaVuSans-64" x="404.785156"/>
      <use xlink:href="#DejaVuSans-65" x="468.261719"/>
     </g>
    </g>
   </g>
   <g id="line2d_16">
    <path d="M 95.281364 112.076961 
L 95.942474 108.755301 
L 96.603584 106.437944 
L 97.264694 102.033187 
L 97.925804 99.925203 
L 98.586914 97.021966 
L 99.248024 93.327953 
L 99.909134 91.944136 
L 100.570245 88.495266 
L 101.231355 86.081939 
L 101.892465 84.707876 
L 102.553575 81.279918 
L 103.214685 80.180734 
L 103.875795 78.316741 
L 104.536905 75.690814 
L 105.198015 75.402278 
L 105.859126 73.074197 
L 106.520236 71.805435 
L 107.181346 71.597951 
L 107.842456 69.356787 
L 108.503566 69.462781 
L 109.164676 68.820493 
L 109.825786 67.430913 
L 110.486896 68.391461 
L 111.148007 67.323273 
L 111.809117 67.323273 
L 112.470227 68.391461 
L 113.131337 67.430913 
L 113.792447 68.820493 
L 114.453557 69.462781 
L 115.114667 69.356787 
L 115.775777 71.597951 
L 116.436888 71.805435 
L 117.097998 73.074197 
L 117.759108 75.402278 
L 118.420218 75.690814 
L 119.081328 78.316741 
L 119.742438 80.180734 
L 120.403548 81.279918 
L 121.064658 84.707876 
L 121.725769 86.081939 
L 122.386879 88.495266 
L 123.047989 91.944136 
L 123.709099 93.327953 
L 124.370209 97.021966 
L 125.031319 99.925203 
L 125.692429 102.033187 
L 126.353539 106.437944 
L 127.01465 108.755301 
L 127.67576 112.076961 
L 128.33687 116.397801 
L 128.99798 118.615884 
L 129.65909 123.10517 
L 130.3202 126.763462 
L 130.98131 129.585119 
L 131.64242 134.661065 
L 132.303531 137.606093 
L 132.964641 141.510939 
L 133.625751 146.369579 
L 134.286861 149.079248 
L 134.947971 154.013149 
L 135.609081 158.068396 
L 136.270191 161.238739 
L 136.931301 166.614564 
L 137.592411 169.8102 
L 138.253522 173.915997 
L 138.914632 178.925624 
L 139.575742 181.73608 
L 140.236852 186.720412 
L 140.897962 190.77566 
L 141.559072 193.89557 
L 142.220182 199.170608 
L 142.881292 202.215259 
L 143.542403 206.120104 
L 144.203513 210.879123 
L 144.864623 213.3897 
L 145.525733 218.025346 
L 146.186843 221.683638 
L 146.847953 224.358935 
L 147.509063 229.142387 
L 148.170173 231.649237 
L 148.831284 234.970897 
L 149.492394 239.102244 
L 150.153504 240.941632 
L 150.814614 244.863606 
L 151.475724 247.766843 
L 152.136834 249.646866 
L 152.797944 253.596052 
L 153.459054 255.230931 
L 154.120165 257.644258 
L 154.781275 260.832312 
L 155.442385 261.6949 
L 156.103495 264.608075 
L 156.764605 266.472068 
L 157.425715 267.284005 
L 158.086825 270.13791 
L 158.747935 270.652001 
L 159.409046 271.920762 
L 160.070156 273.942237 
L 160.731266 273.618031 
L 161.392376 275.326028 
L 162.053486 275.968316 
L 162.714596 275.543905 
L 163.375706 277.148727 
L 164.036816 276.402925 
L 164.697927 276.402925 
L 165.359037 277.148727 
L 166.020147 275.543905 
L 166.681257 275.968316 
L 167.342367 275.326028 
L 168.003477 273.618031 
L 168.664587 273.942237 
L 169.325697 271.920762 
L 169.986808 270.652001 
L 170.647918 270.13791 
L 171.309028 267.284005 
L 171.970138 266.472068 
L 172.631248 264.608075 
L 173.292358 261.6949 
L 173.953468 260.832312 
L 174.614578 257.644258 
L 175.275688 255.230931 
L 175.936799 253.596052 
L 176.597909 249.646866 
L 177.259019 247.766843 
L 177.920129 244.863606 
L 178.581239 240.941632 
L 179.242349 239.102244 
L 179.903459 234.970897 
L 180.564569 231.649237 
L 181.22568 229.142387 
L 181.88679 224.358935 
L 182.5479 221.683638 
L 183.20901 218.025346 
L 183.87012 213.3897 
L 184.53123 210.879123 
L 185.19234 206.120104 
L 185.85345 202.215259 
L 186.514561 199.170608 
L 187.175671 193.89557 
L 187.836781 190.77566 
L 188.497891 186.720412 
L 189.159001 181.73608 
L 189.820111 178.925624 
L 190.481221 173.915997 
L 191.142331 169.8102 
L 191.803442 166.614564 
L 192.464552 161.238739 
L 193.125662 158.068396 
L 193.786772 154.013149 
L 194.447882 149.079248 
L 195.108992 146.369579 
L 195.770102 141.510939 
L 196.431212 137.606093 
L 197.092323 134.661065 
L 197.753433 129.585119 
L 198.414543 126.763462 
L 199.075653 123.10517 
L 199.736763 118.615884 
L 200.397873 116.397801 
L 201.058983 112.076961 
L 201.720093 108.755301 
L 202.381204 106.437944 
L 203.042314 102.033187 
L 203.703424 99.925203 
L 204.364534 97.021966 
L 205.025644 93.327953 
L 205.686754 91.944136 
L 206.347864 88.495266 
L 207.008974 86.081939 
L 207.670085 84.707876 
L 208.331195 81.279918 
L 208.992305 80.180734 
L 209.653415 78.316741 
L 210.314525 75.690814 
L 210.975635 75.402278 
L 211.636745 73.074197 
L 212.297855 71.805435 
L 212.958965 71.597951 
L 213.620076 69.356787 
L 214.281186 69.462781 
L 214.942296 68.820493 
L 215.603406 67.430913 
L 216.264516 68.391461 
L 216.925626 67.323273 
L 217.586736 67.323273 
L 218.247846 68.391461 
L 218.908957 67.430913 
L 219.570067 68.820493 
L 220.231177 69.462781 
L 220.892287 69.356787 
L 221.553397 71.597951 
L 222.214507 71.805435 
L 222.875617 73.074197 
L 223.536727 75.402278 
L 224.197838 75.690814 
L 224.858948 78.316741 
L 225.520058 80.180734 
L 226.181168 81.279918 
L 226.842278 84.707876 
L 227.503388 86.081939 
L 228.164498 88.495266 
L 228.825608 91.944136 
L 229.486719 93.327953 
L 230.147829 97.021966 
L 230.808939 99.925203 
L 231.470049 102.033187 
L 232.131159 106.437944 
L 232.792269 108.755301 
L 233.453379 112.076961 
L 234.114489 116.397801 
L 234.7756 118.615884 
L 235.43671 123.10517 
L 236.09782 126.763462 
L 236.75893 129.585119 
L 237.42004 134.661065 
L 238.08115 137.606093 
L 238.74226 141.510939 
L 239.40337 146.369579 
L 240.064481 149.079248 
L 240.725591 154.013149 
L 241.386701 158.068396 
L 242.047811 161.238739 
L 242.708921 166.614564 
L 243.370031 169.8102 
L 244.031141 173.915997 
L 244.692251 178.925624 
L 245.353362 181.73608 
L 246.014472 186.720412 
L 246.675582 190.77566 
L 247.336692 193.89557 
L 247.997802 199.170608 
L 248.658912 202.215259 
L 249.320022 206.120104 
L 249.981132 210.879123 
L 250.642242 213.3897 
L 251.303353 218.025346 
L 251.964463 221.683638 
L 252.625573 224.358935 
L 253.286683 229.142387 
L 253.947793 231.649237 
L 254.608903 234.970897 
L 255.270013 239.102244 
L 255.931123 240.941632 
L 256.592234 244.863606 
L 257.253344 247.766843 
L 257.914454 249.646866 
L 258.575564 253.596052 
L 259.236674 255.230931 
L 259.897784 257.644258 
L 260.558894 260.832312 
L 261.220004 261.6949 
L 261.881115 264.608075 
L 262.542225 266.472068 
L 263.203335 267.284005 
L 263.864445 270.13791 
L 264.525555 270.652001 
L 265.186665 271.920762 
L 265.847775 273.942237 
L 266.508885 273.618031 
L 267.169996 275.326028 
L 267.831106 275.968316 
L 268.492216 275.543905 
L 269.153326 277.148727 
L 269.814436 276.402925 
L 270.475546 276.402925 
L 271.136656 277.148727 
L 271.797766 275.543905 
L 272.458877 275.968316 
L 273.119987 275.326028 
L 273.781097 273.618031 
L 274.442207 273.942237 
L 275.103317 271.920762 
L 275.764427 270.652001 
L 276.425537 270.13791 
L 277.086647 267.284005 
L 277.747758 266.472068 
L 278.408868 264.608075 
L 279.069978 261.6949 
L 279.731088 260.832312 
L 280.392198 257.644258 
L 281.053308 255.230931 
L 281.714418 253.596052 
L 282.375528 249.646866 
L 283.036638 247.766843 
L 283.697749 244.863606 
L 284.358859 240.941632 
L 285.019969 239.102244 
L 285.681079 234.970897 
L 286.342189 231.649237 
L 287.003299 229.142387 
L 287.664409 224.358935 
L 288.325519 221.683638 
L 288.98663 218.025346 
L 289.64774 213.3897 
L 290.30885 210.879123 
L 290.96996 206.120104 
L 291.63107 202.215259 
L 292.29218 199.170608 
L 292.95329 193.89557 
L 293.6144 190.77566 
L 294.275511 186.720412 
L 294.936621 181.73608 
L 295.597731 178.925624 
L 296.258841 173.915997 
L 296.919951 169.8102 
L 297.581061 166.614564 
L 298.242171 161.238739 
L 298.903281 158.068396 
L 299.564392 154.013149 
L 300.225502 149.079248 
L 300.886612 146.369579 
L 301.547722 141.510939 
L 302.208832 137.606093 
L 302.869942 134.661065 
L 303.531052 129.585119 
L 304.192162 126.763462 
L 304.853273 123.10517 
L 305.514383 118.615884 
L 306.175493 116.397801 
L 306.836603 112.076961 
L 307.497713 108.755301 
L 308.158823 106.437944 
L 308.819933 102.033187 
L 309.481043 99.925203 
L 310.142154 97.021966 
L 310.803264 93.327953 
L 311.464374 91.944136 
L 312.125484 88.495266 
L 312.786594 86.081939 
L 313.447704 84.707876 
L 314.108814 81.279918 
L 314.769924 80.180734 
L 315.431035 78.316741 
L 316.092145 75.690814 
L 316.753255 75.402278 
L 317.414365 73.074197 
L 318.075475 71.805435 
L 318.736585 71.597951 
L 319.397695 69.356787 
L 320.058805 69.462781 
L 320.719915 68.820493 
L 321.381026 67.430913 
L 322.042136 68.391461 
L 322.703246 67.323273 
L 323.364356 67.323273 
L 324.025466 68.391461 
L 324.686576 67.430913 
L 325.347686 68.820493 
L 326.008796 69.462781 
L 326.669907 69.356787 
L 327.331017 71.597951 
L 327.992127 71.805435 
L 328.653237 73.074197 
L 329.314347 75.402278 
L 329.975457 75.690814 
L 330.636567 78.316741 
L 331.297677 80.180734 
L 331.958788 81.279918 
L 332.619898 84.707876 
L 333.281008 86.081939 
L 333.942118 88.495266 
L 334.603228 91.944136 
L 335.264338 93.327953 
L 335.925448 97.021966 
L 336.586558 99.925203 
L 337.247669 102.033187 
L 337.908779 106.437944 
L 338.569889 108.755301 
L 339.230999 112.076961 
L 339.892109 116.397801 
L 340.553219 118.615884 
L 341.214329 123.10517 
L 341.875439 126.763462 
L 342.53655 129.585119 
L 343.19766 134.661065 
L 343.85877 137.606093 
L 344.51988 141.510939 
L 345.18099 146.369579 
L 345.8421 149.079248 
L 346.50321 154.013149 
L 347.16432 158.068396 
L 347.825431 161.238739 
L 348.486541 166.614564 
L 349.147651 169.8102 
L 349.808761 173.915997 
L 350.469871 178.925624 
L 351.130981 181.73608 
L 351.792091 186.720412 
L 352.453201 190.77566 
L 353.114312 193.89557 
L 353.775422 199.170608 
L 354.436532 202.215259 
L 355.097642 206.120104 
L 355.758752 210.879123 
L 356.419862 213.3897 
L 357.080972 218.025346 
L 357.742082 221.683638 
L 358.403192 224.358935 
L 359.064303 229.142387 
L 359.725413 231.649237 
L 360.386523 234.970897 
L 361.047633 239.102244 
L 361.708743 240.941632 
L 362.369853 244.863606 
L 363.030963 247.766843 
L 363.692073 249.646866 
L 364.353184 253.596052 
L 365.014294 255.230931 
L 365.675404 257.644258 
L 366.336514 260.832312 
L 366.997624 261.6949 
L 367.658734 264.608075 
L 368.319844 266.472068 
L 368.980954 267.284005 
L 369.642065 270.13791 
L 370.303175 270.652001 
L 370.964285 271.920762 
L 371.625395 273.942237 
L 372.286505 273.618031 
L 372.947615 275.326028 
L 373.608725 275.968316 
L 374.269835 275.543905 
L 374.930946 277.148727 
L 375.592056 276.402925 
L 376.253166 276.402925 
L 376.914276 277.148727 
L 377.575386 275.543905 
L 378.236496 275.968316 
L 378.897606 275.326028 
L 379.558716 273.618031 
L 380.219827 273.942237 
L 380.880937 271.920762 
L 381.542047 270.652001 
L 382.203157 270.13791 
L 382.864267 267.284005 
L 383.525377 266.472068 
L 384.186487 264.608075 
L 384.847597 261.6949 
L 385.508708 260.832312 
L 386.169818 257.644258 
L 386.830928 255.230931 
L 387.492038 253.596052 
L 388.153148 249.646866 
L 388.814258 247.766843 
L 389.475368 244.863606 
L 390.136478 240.941632 
L 390.797589 239.102244 
L 391.458699 234.970897 
L 392.119809 231.649237 
L 392.780919 229.142387 
L 393.442029 224.358935 
L 394.103139 221.683638 
L 394.764249 218.025346 
L 395.425359 213.3897 
L 396.086469 210.879123 
L 396.74758 206.120104 
L 397.40869 202.215259 
L 398.0698 199.170608 
L 398.73091 193.89557 
L 399.39202 190.77566 
L 400.05313 186.720412 
L 400.71424 181.73608 
L 401.37535 178.925624 
L 402.036461 173.915997 
L 402.697571 169.8102 
L 403.358681 166.614564 
L 404.019791 161.238739 
L 404.680901 158.068396 
L 405.342011 154.013149 
L 406.003121 149.079248 
L 406.664231 146.369579 
L 407.325342 141.510939 
L 407.986452 137.606093 
L 408.647562 134.661065 
L 409.308672 129.585119 
L 409.969782 126.763462 
L 410.630892 123.10517 
L 411.292002 118.615884 
L 411.953112 116.397801 
L 412.614223 112.076961 
L 413.275333 108.755301 
L 413.936443 106.437944 
L 414.597553 102.033187 
L 415.258663 99.925203 
L 415.919773 97.021966 
L 416.580883 93.327953 
L 417.241993 91.944136 
L 417.903104 88.495266 
L 418.564214 86.081939 
L 419.225324 84.707876 
L 419.886434 81.279918 
L 420.547544 80.180734 
L 421.208654 78.316741 
L 421.869764 75.690814 
L 422.530874 75.402278 
L 423.191985 73.074197 
L 423.853095 71.805435 
L 424.514205 71.597951 
L 425.175315 69.356787 
L 425.836425 69.462781 
L 426.497535 68.820493 
L 427.158645 67.430913 
L 427.819755 68.391461 
L 428.480866 67.323273 
L 429.141976 67.323273 
L 429.803086 68.391461 
L 430.464196 67.430913 
L 431.125306 68.820493 
L 431.786416 69.462781 
L 432.447526 69.356787 
L 433.108636 71.597951 
L 433.108636 71.597951 
" clip-path="url(#p0d7d28a6af)" style="fill: none; stroke: #ffa500; stroke-width: 1.5; stroke-linecap: square"/>
   </g>
   <g id="line2d_17">
    <path d="M 95.281364 78.006492 
L 95.942474 73.08898 
L 96.603584 75.161198 
L 97.264694 74.550947 
L 97.925804 71.259168 
L 98.586914 74.959941 
L 99.248024 71.973524 
L 99.909134 71.973524 
L 100.570245 74.959941 
L 101.231355 71.259168 
L 101.892465 74.550947 
L 102.553575 75.161198 
L 103.214685 73.08898 
L 103.875795 78.006492 
L 104.536905 76.232116 
L 105.198015 77.437592 
L 105.859126 81.621059 
L 106.520236 79.107065 
L 107.181346 83.573522 
L 107.842456 85.344539 
L 108.503566 84.417386 
L 109.164676 90.462494 
L 109.825786 89.796509 
L 110.486896 92.089459 
L 111.148007 97.33781 
L 111.809117 95.864465 
L 112.470227 101.345731 
L 113.131337 104.104155 
L 113.792447 104.135482 
L 114.453557 111.108668 
L 115.114667 111.338924 
L 115.775777 114.494899 
L 116.436888 120.571727 
L 117.097998 119.891035 
L 117.759108 126.127907 
L 118.420218 129.603723 
L 119.081328 130.313125 
L 119.742438 137.924021 
L 120.403548 138.75064 
L 121.064658 142.460712 
L 121.725769 149.048515 
L 122.386879 148.834888 
L 123.047989 155.494196 
L 123.709099 159.347169 
L 124.370209 160.387864 
L 125.031319 168.28368 
L 125.692429 169.348407 
L 126.353539 173.249407 
L 127.01465 179.980665 
L 127.67576 179.862798 
L 128.33687 186.570023 
L 128.99798 190.422995 
L 129.65909 191.415773 
L 130.3202 199.21583 
L 130.98131 200.137103 
L 131.64242 203.847175 
L 132.303531 210.340324 
L 132.964641 209.937537 
L 133.625751 216.313468 
L 134.286861 219.789285 
L 134.947971 220.359627 
L 135.609081 227.692618 
L 136.270191 228.102916 
L 136.931301 231.258891 
L 137.592411 237.155677 
L 138.253522 236.115179 
L 138.914632 241.813036 
L 139.575742 244.57146 
L 140.236852 244.386197 
L 140.897962 250.926535 
L 141.559072 250.508356 
L 142.220182 252.801306 
L 142.881292 257.801851 
L 143.542403 255.833276 
L 144.203513 260.572652 
L 144.864623 262.343669 
L 145.525733 261.143596 
L 146.186843 266.643286 
L 146.847953 265.160223 
L 147.509063 266.365699 
L 148.170173 270.257853 
L 148.831284 267.161681 
L 149.492394 270.755994 
L 150.153504 271.366245 
L 150.814614 268.991493 
L 151.475724 273.304404 
L 152.136834 270.624291 
L 152.797944 270.624291 
L 153.459054 273.304404 
L 154.120165 268.991493 
L 154.781275 271.366245 
L 155.442385 270.755994 
L 156.103495 267.161681 
L 156.764605 270.257853 
L 157.425715 266.365699 
L 158.086825 265.160223 
L 158.747935 266.643286 
L 159.409046 261.143596 
L 160.070156 262.343669 
L 160.731266 260.572652 
L 161.392376 255.833276 
L 162.053486 257.801851 
L 162.714596 252.801306 
L 163.375706 250.508356 
L 164.036816 250.926535 
L 164.697927 244.386197 
L 165.359037 244.57146 
L 166.020147 241.813036 
L 166.681257 236.115179 
L 167.342367 237.155677 
L 168.003477 231.258891 
L 168.664587 228.102916 
L 169.325697 227.692618 
L 169.986808 220.359627 
L 170.647918 219.789285 
L 171.309028 216.313468 
L 171.970138 209.937537 
L 172.631248 210.340324 
L 173.292358 203.847175 
L 173.953468 200.137103 
L 174.614578 199.21583 
L 175.275688 191.415773 
L 175.936799 190.422995 
L 176.597909 186.570023 
L 177.259019 179.862798 
L 177.920129 179.980665 
L 178.581239 173.249407 
L 179.242349 169.348407 
L 179.903459 168.28368 
L 180.564569 160.387864 
L 181.22568 159.347169 
L 181.88679 155.494196 
L 182.5479 148.834888 
L 183.20901 149.048515 
L 183.87012 142.460712 
L 184.53123 138.75064 
L 185.19234 137.924021 
L 185.85345 130.313125 
L 186.514561 129.603723 
L 187.175671 126.127907 
L 187.836781 119.891035 
L 188.497891 120.571727 
L 189.159001 114.494899 
L 189.820111 111.338924 
L 190.481221 111.108668 
L 191.142331 104.135482 
L 191.803442 104.104155 
L 192.464552 101.345731 
L 193.125662 95.864465 
L 193.786772 97.33781 
L 194.447882 92.089459 
L 195.108992 89.796509 
L 195.770102 90.462494 
L 196.431212 84.417386 
L 197.092323 85.344539 
L 197.753433 83.573522 
L 198.414543 79.107065 
L 199.075653 81.621059 
L 199.736763 77.437592 
L 200.397873 76.232116 
L 201.058983 78.006492 
L 201.720093 73.08898 
L 202.381204 75.161198 
L 203.042314 74.550947 
L 203.703424 71.259168 
L 204.364534 74.959941 
L 205.025644 71.973524 
L 205.686754 71.973524 
L 206.347864 74.959941 
L 207.008974 71.259168 
L 207.670085 74.550947 
L 208.331195 75.161198 
L 208.992305 73.08898 
L 209.653415 78.006492 
L 210.314525 76.232116 
L 210.975635 77.437592 
L 211.636745 81.621059 
L 212.297855 79.107065 
L 212.958965 83.573522 
L 213.620076 85.344539 
L 214.281186 84.417386 
L 214.942296 90.462494 
L 215.603406 89.796509 
L 216.264516 92.089459 
L 216.925626 97.33781 
L 217.586736 95.864465 
L 218.247846 101.345731 
L 218.908957 104.104155 
L 219.570067 104.135482 
L 220.231177 111.108668 
L 220.892287 111.338924 
L 221.553397 114.494899 
L 222.214507 120.571727 
L 222.875617 119.891035 
L 223.536727 126.127907 
L 224.197838 129.603723 
L 224.858948 130.313125 
L 225.520058 137.924021 
L 226.181168 138.75064 
L 226.842278 142.460712 
L 227.503388 149.048515 
L 228.164498 148.834888 
L 228.825608 155.494196 
L 229.486719 159.347169 
L 230.147829 160.387864 
L 230.808939 168.28368 
L 231.470049 169.348407 
L 232.131159 173.249407 
L 232.792269 179.980665 
L 233.453379 179.862798 
L 234.114489 186.570023 
L 234.7756 190.422995 
L 235.43671 191.415773 
L 236.09782 199.21583 
L 236.75893 200.137103 
L 237.42004 203.847175 
L 238.08115 210.340324 
L 238.74226 209.937537 
L 239.40337 216.313468 
L 240.064481 219.789285 
L 240.725591 220.359627 
L 241.386701 227.692618 
L 242.047811 228.102916 
L 242.708921 231.258891 
L 243.370031 237.155677 
L 244.031141 236.115179 
L 244.692251 241.813036 
L 245.353362 244.57146 
L 246.014472 244.386197 
L 246.675582 250.926535 
L 247.336692 250.508356 
L 247.997802 252.801306 
L 248.658912 257.801851 
L 249.320022 255.833276 
L 249.981132 260.572652 
L 250.642242 262.343669 
L 251.303353 261.143596 
L 251.964463 266.643286 
L 252.625573 265.160223 
L 253.286683 266.365699 
L 253.947793 270.257853 
L 254.608903 267.161681 
L 255.270013 270.755994 
L 255.931123 271.366245 
L 256.592234 268.991493 
L 257.253344 273.304404 
L 257.914454 270.624291 
L 258.575564 270.624291 
L 259.236674 273.304404 
L 259.897784 268.991493 
L 260.558894 271.366245 
L 261.220004 270.755994 
L 261.881115 267.161681 
L 262.542225 270.257853 
L 263.203335 266.365699 
L 263.864445 265.160223 
L 264.525555 266.643286 
L 265.186665 261.143596 
L 265.847775 262.343669 
L 266.508885 260.572652 
L 267.169996 255.833276 
L 267.831106 257.801851 
L 268.492216 252.801306 
L 269.153326 250.508356 
L 269.814436 250.926535 
L 270.475546 244.386197 
L 271.136656 244.57146 
L 271.797766 241.813036 
L 272.458877 236.115179 
L 273.119987 237.155677 
L 273.781097 231.258891 
L 274.442207 228.102916 
L 275.103317 227.692618 
L 275.764427 220.359627 
L 276.425537 219.789285 
L 277.086647 216.313468 
L 277.747758 209.937537 
L 278.408868 210.340324 
L 279.069978 203.847175 
L 279.731088 200.137103 
L 280.392198 199.21583 
L 281.053308 191.415773 
L 281.714418 190.422995 
L 282.375528 186.570023 
L 283.036638 179.862798 
L 283.697749 179.980665 
L 284.358859 173.249407 
L 285.019969 169.348407 
L 285.681079 168.28368 
L 286.342189 160.387864 
L 287.003299 159.347169 
L 287.664409 155.494196 
L 288.325519 148.834888 
L 288.98663 149.048515 
L 289.64774 142.460712 
L 290.30885 138.75064 
L 290.96996 137.924021 
L 291.63107 130.313125 
L 292.29218 129.603723 
L 292.95329 126.127907 
L 293.6144 119.891035 
L 294.275511 120.571727 
L 294.936621 114.494899 
L 295.597731 111.338924 
L 296.258841 111.108668 
L 296.919951 104.135482 
L 297.581061 104.104155 
L 298.242171 101.345731 
L 298.903281 95.864465 
L 299.564392 97.33781 
L 300.225502 92.089459 
L 300.886612 89.796509 
L 301.547722 90.462494 
L 302.208832 84.417386 
L 302.869942 85.344539 
L 303.531052 83.573522 
L 304.192162 79.107065 
L 304.853273 81.621059 
L 305.514383 77.437592 
L 306.175493 76.232116 
L 306.836603 78.006492 
L 307.497713 73.08898 
L 308.158823 75.161198 
L 308.819933 74.550947 
L 309.481043 71.259168 
L 310.142154 74.959941 
L 310.803264 71.973524 
L 311.464374 71.973524 
L 312.125484 74.959941 
L 312.786594 71.259168 
L 313.447704 74.550947 
L 314.108814 75.161198 
L 314.769924 73.08898 
L 315.431035 78.006492 
L 316.092145 76.232116 
L 316.753255 77.437592 
L 317.414365 81.621059 
L 318.075475 79.107065 
L 318.736585 83.573522 
L 319.397695 85.344539 
L 320.058805 84.417386 
L 320.719915 90.462494 
L 321.381026 89.796509 
L 322.042136 92.089459 
L 322.703246 97.33781 
L 323.364356 95.864465 
L 324.025466 101.345731 
L 324.686576 104.104155 
L 325.347686 104.135482 
L 326.008796 111.108668 
L 326.669907 111.338924 
L 327.331017 114.494899 
L 327.992127 120.571727 
L 328.653237 119.891035 
L 329.314347 126.127907 
L 329.975457 129.603723 
L 330.636567 130.313125 
L 331.297677 137.924021 
L 331.958788 138.75064 
L 332.619898 142.460712 
L 333.281008 149.048515 
L 333.942118 148.834888 
L 334.603228 155.494196 
L 335.264338 159.347169 
L 335.925448 160.387864 
L 336.586558 168.28368 
L 337.247669 169.348407 
L 337.908779 173.249407 
L 338.569889 179.980665 
L 339.230999 179.862798 
L 339.892109 186.570023 
L 340.553219 190.422995 
L 341.214329 191.415773 
L 341.875439 199.21583 
L 342.53655 200.137103 
L 343.19766 203.847175 
L 343.85877 210.340324 
L 344.51988 209.937537 
L 345.18099 216.313468 
L 345.8421 219.789285 
L 346.50321 220.359627 
L 347.16432 227.692618 
L 347.825431 228.102916 
L 348.486541 231.258891 
L 349.147651 237.155677 
L 349.808761 236.115179 
L 350.469871 241.813036 
L 351.130981 244.57146 
L 351.792091 244.386197 
L 352.453201 250.926535 
L 353.114312 250.508356 
L 353.775422 252.801306 
L 354.436532 257.801851 
L 355.097642 255.833276 
L 355.758752 260.572652 
L 356.419862 262.343669 
L 357.080972 261.143596 
L 357.742082 266.643286 
L 358.403192 265.160223 
L 359.064303 266.365699 
L 359.725413 270.257853 
L 360.386523 267.161681 
L 361.047633 270.755994 
L 361.708743 271.366245 
L 362.369853 268.991493 
L 363.030963 273.304404 
L 363.692073 270.624291 
L 364.353184 270.624291 
L 365.014294 273.304404 
L 365.675404 268.991493 
L 366.336514 271.366245 
L 366.997624 270.755994 
L 367.658734 267.161681 
L 368.319844 270.257853 
L 368.980954 266.365699 
L 369.642065 265.160223 
L 370.303175 266.643286 
L 370.964285 261.143596 
L 371.625395 262.343669 
L 372.286505 260.572652 
L 372.947615 255.833276 
L 373.608725 257.801851 
L 374.269835 252.801306 
L 374.930946 250.508356 
L 375.592056 250.926535 
L 376.253166 244.386197 
L 376.914276 244.57146 
L 377.575386 241.813036 
L 378.236496 236.115179 
L 378.897606 237.155677 
L 379.558716 231.258891 
L 380.219827 228.102916 
L 380.880937 227.692618 
L 381.542047 220.359627 
L 382.203157 219.789285 
L 382.864267 216.313468 
L 383.525377 209.937537 
L 384.186487 210.340324 
L 384.847597 203.847175 
L 385.508708 200.137103 
L 386.169818 199.21583 
L 386.830928 191.415773 
L 387.492038 190.422995 
L 388.153148 186.570023 
L 388.814258 179.862798 
L 389.475368 179.980665 
L 390.136478 173.249407 
L 390.797589 169.348407 
L 391.458699 168.28368 
L 392.119809 160.387864 
L 392.780919 159.347169 
L 393.442029 155.494196 
L 394.103139 148.834888 
L 394.764249 149.048515 
L 395.425359 142.460712 
L 396.086469 138.75064 
L 396.74758 137.924021 
L 397.40869 130.313125 
L 398.0698 129.603723 
L 398.73091 126.127907 
L 399.39202 119.891035 
L 400.05313 120.571727 
L 400.71424 114.494899 
L 401.37535 111.338924 
L 402.036461 111.108668 
L 402.697571 104.135482 
L 403.358681 104.104155 
L 404.019791 101.345731 
L 404.680901 95.864465 
L 405.342011 97.33781 
L 406.003121 92.089459 
L 406.664231 89.796509 
L 407.325342 90.462494 
L 407.986452 84.417386 
L 408.647562 85.344539 
L 409.308672 83.573522 
L 409.969782 79.107065 
L 410.630892 81.621059 
L 411.292002 77.437592 
L 411.953112 76.232116 
L 412.614223 78.006492 
L 413.275333 73.08898 
L 413.936443 75.161198 
L 414.597553 74.550947 
L 415.258663 71.259168 
L 415.919773 74.959941 
L 416.580883 71.973524 
L 417.241993 71.973524 
L 417.903104 74.959941 
L 418.564214 71.259168 
L 419.225324 74.550947 
L 419.886434 75.161198 
L 420.547544 73.08898 
L 421.208654 78.006492 
L 421.869764 76.232116 
L 422.530874 77.437592 
L 423.191985 81.621059 
L 423.853095 79.107065 
L 424.514205 83.573522 
L 425.175315 85.344539 
L 425.836425 84.417386 
L 426.497535 90.462494 
L 427.158645 89.796509 
L 427.819755 92.089459 
L 428.480866 97.33781 
L 429.141976 95.864465 
L 429.803086 101.345731 
L 430.464196 104.104155 
L 431.125306 104.135482 
L 431.786416 111.108668 
L 432.447526 111.338924 
L 433.108636 114.494899 
L 433.108636 114.494899 
" clip-path="url(#p0d7d28a6af)" style="fill: none; stroke: #0000ff; stroke-width: 1.5; stroke-linecap: square"/>
   </g>
   <g id="patch_3">
    <path d="M 78.39 287.64 
L 78.39 56.832 
" style="fill: none; stroke: #000000; stroke-width: 0.8; stroke-linejoin: miter; stroke-linecap: square"/>
   </g>
   <g id="patch_4">
    <path d="M 450 287.64 
L 450 56.832 
" style="fill: none; stroke: #000000; stroke-width: 0.8; stroke-linejoin: miter; stroke-linecap: square"/>
   </g>
   <g id="patch_5">
    <path d="M 78.39 287.64 
L 450 287.64 
" style="fill: none; stroke: #000000; stroke-width: 0.8; stroke-linejoin: miter; stroke-linecap: square"/>
   </g>
   <g id="patch_6">
    <path d="M 78.39 56.832 
L 450 56.832 
" style="fill: none; stroke: #000000; stroke-width: 0.8; stroke-linejoin: miter; stroke-linecap: square"/>
   </g>
   <g id="text_18">
    <!-- Udgangs signal y[n] i Diskret Tidsdomænet -->
    <g transform="translate(134.383125 23.95725) scale(0.12 -0.12)">
     <defs>
      <path id="DejaVuSans-55" d="M 556 4666 
L 1191 4666 
L 1191 1831 
Q 1191 1081 1462 751 
Q 1734 422 2344 422 
Q 2950 422 3222 751 
Q 3494 1081 3494 1831 
L 3494 4666 
L 4128 4666 
L 4128 1753 
Q 4128 841 3676 375 
Q 3225 -91 2344 -91 
Q 1459 -91 1007 375 
Q 556 841 556 1753 
L 556 4666 
z
" transform="scale(0.015625)"/>
      <path id="DejaVuSans-73" d="M 2834 3397 
L 2834 2853 
Q 2591 2978 2328 3040 
Q 2066 3103 1784 3103 
Q 1356 3103 1142 2972 
Q 928 2841 928 2578 
Q 928 2378 1081 2264 
Q 1234 2150 1697 2047 
L 1894 2003 
Q 2506 1872 2764 1633 
Q 3022 1394 3022 966 
Q 3022 478 2636 193 
Q 2250 -91 1575 -91 
Q 1294 -91 989 -36 
Q 684 19 347 128 
L 347 722 
Q 666 556 975 473 
Q 1284 391 1588 391 
Q 1994 391 2212 530 
Q 2431 669 2431 922 
Q 2431 1156 2273 1281 
Q 2116 1406 1581 1522 
L 1381 1569 
Q 847 1681 609 1914 
Q 372 2147 372 2553 
Q 372 3047 722 3315 
Q 1072 3584 1716 3584 
Q 2034 3584 2315 3537 
Q 2597 3491 2834 3397 
z
" transform="scale(0.015625)"/>
      <path id="DejaVuSans-79" d="M 2059 -325 
Q 1816 -950 1584 -1140 
Q 1353 -1331 966 -1331 
L 506 -1331 
L 506 -850 
L 844 -850 
Q 1081 -850 1212 -737 
Q 1344 -625 1503 -206 
L 1606 56 
L 191 3500 
L 800 3500 
L 1894 763 
L 2988 3500 
L 3597 3500 
L 2059 -325 
z
" transform="scale(0.015625)"/>
      <path id="DejaVuSans-44" d="M 1259 4147 
L 1259 519 
L 2022 519 
Q 2988 519 3436 956 
Q 3884 1394 3884 2338 
Q 3884 3275 3436 3711 
Q 2988 4147 2022 4147 
L 1259 4147 
z
M 628 4666 
L 1925 4666 
Q 3281 4666 3915 4102 
Q 4550 3538 4550 2338 
Q 4550 1131 3912 565 
Q 3275 0 1925 0 
L 628 0 
L 628 4666 
z
" transform="scale(0.015625)"/>
      <path id="DejaVuSans-6b" d="M 581 4863 
L 1159 4863 
L 1159 1991 
L 2875 3500 
L 3609 3500 
L 1753 1863 
L 3688 0 
L 2938 0 
L 1159 1709 
L 1159 0 
L 581 0 
L 581 4863 
z
" transform="scale(0.015625)"/>
      <path id="DejaVuSans-72" d="M 2631 2963 
Q 2534 3019 2420 3045 
Q 2306 3072 2169 3072 
Q 1681 3072 1420 2755 
Q 1159 2438 1159 1844 
L 1159 0 
L 581 0 
L 581 3500 
L 1159 3500 
L 1159 2956 
Q 1341 3275 1631 3429 
Q 1922 3584 2338 3584 
Q 2397 3584 2469 3576 
Q 2541 3569 2628 3553 
L 2631 2963 
z
" transform="scale(0.015625)"/>
      <path id="DejaVuSans-6f" d="M 1959 3097 
Q 1497 3097 1228 2736 
Q 959 2375 959 1747 
Q 959 1119 1226 758 
Q 1494 397 1959 397 
Q 2419 397 2687 759 
Q 2956 1122 2956 1747 
Q 2956 2369 2687 2733 
Q 2419 3097 1959 3097 
z
M 1959 3584 
Q 2709 3584 3137 3096 
Q 3566 2609 3566 1747 
Q 3566 888 3137 398 
Q 2709 -91 1959 -91 
Q 1206 -91 779 398 
Q 353 888 353 1747 
Q 353 2609 779 3096 
Q 1206 3584 1959 3584 
z
" transform="scale(0.015625)"/>
      <path id="DejaVuSans-e6" d="M 5369 2063 
Q 5366 2534 5108 2815 
Q 4850 3097 4422 3097 
Q 3944 3097 3655 2825 
Q 3366 2553 3322 2059 
L 5369 2063 
z
M 3109 3009 
Q 3341 3291 3672 3437 
Q 4003 3584 4416 3584 
Q 5122 3584 5534 3129 
Q 5947 2675 5947 1894 
L 5947 1613 
L 3303 1613 
Q 3341 1016 3659 703 
Q 3978 391 4550 391 
Q 4875 391 5187 473 
Q 5500 556 5813 722 
L 5813 178 
Q 5500 47 5175 -22 
Q 4850 -91 4519 -91 
Q 3997 -91 3609 98 
Q 3222 288 2981 659 
Q 2753 284 2415 96 
Q 2078 -91 1631 -91 
Q 1041 -91 712 201 
Q 384 494 384 1019 
Q 384 1609 779 1909 
Q 1175 2209 1959 2209 
L 2766 2209 
L 2766 2266 
Q 2766 2663 2505 2880 
Q 2244 3097 1772 3097 
Q 1472 3097 1187 3025 
Q 903 2953 641 2809 
L 641 3341 
Q 956 3463 1253 3523 
Q 1550 3584 1831 3584 
Q 2275 3584 2608 3434 
Q 2941 3284 3109 3009 
z
M 2194 1759 
Q 1497 1759 1228 1600 
Q 959 1441 959 1056 
Q 959 750 1161 570 
Q 1363 391 1709 391 
Q 2188 391 2477 730 
Q 2766 1069 2766 1631 
L 2766 1759 
L 2194 1759 
z
" transform="scale(0.015625)"/>
     </defs>
     <use xlink:href="#DejaVuSans-55"/>
     <use xlink:href="#DejaVuSans-64" x="73.193359"/>
     <use xlink:href="#DejaVuSans-67" x="136.669922"/>
     <use xlink:href="#DejaVuSans-61" x="200.146484"/>
     <use xlink:href="#DejaVuSans-6e" x="261.425781"/>
     <use xlink:href="#DejaVuSans-67" x="324.804688"/>
     <use xlink:href="#DejaVuSans-73" x="388.28125"/>
     <use xlink:href="#DejaVuSans-20" x="440.380859"/>
     <use xlink:href="#DejaVuSans-73" x="472.167969"/>
     <use xlink:href="#DejaVuSans-69" x="524.267578"/>
     <use xlink:href="#DejaVuSans-67" x="552.050781"/>
     <use xlink:href="#DejaVuSans-6e" x="615.527344"/>
     <use xlink:href="#DejaVuSans-61" x="678.90625"/>
     <use xlink:href="#DejaVuSans-6c" x="740.185547"/>
     <use xlink:href="#DejaVuSans-20" x="767.96875"/>
     <use xlink:href="#DejaVuSans-79" x="799.755859"/>
     <use xlink:href="#DejaVuSans-5b" x="858.935547"/>
     <use xlink:href="#DejaVuSans-6e" x="897.949219"/>
     <use xlink:href="#DejaVuSans-5d" x="961.328125"/>
     <use xlink:href="#DejaVuSans-20" x="1000.341797"/>
     <use xlink:href="#DejaVuSans-69" x="1032.128906"/>
     <use xlink:href="#DejaVuSans-20" x="1059.912109"/>
     <use xlink:href="#DejaVuSans-44" x="1091.699219"/>
     <use xlink:href="#DejaVuSans-69" x="1168.701172"/>
     <use xlink:href="#DejaVuSans-73" x="1196.484375"/>
     <use xlink:href="#DejaVuSans-6b" x="1248.583984"/>
     <use xlink:href="#DejaVuSans-72" x="1306.494141"/>
     <use xlink:href="#DejaVuSans-65" x="1345.357422"/>
     <use xlink:href="#DejaVuSans-74" x="1406.880859"/>
     <use xlink:href="#DejaVuSans-20" x="1446.089844"/>
     <use xlink:href="#DejaVuSans-54" x="1477.876953"/>
     <use xlink:href="#DejaVuSans-69" x="1535.835938"/>
     <use xlink:href="#DejaVuSans-64" x="1563.619141"/>
     <use xlink:href="#DejaVuSans-73" x="1627.095703"/>
     <use xlink:href="#DejaVuSans-64" x="1679.195312"/>
     <use xlink:href="#DejaVuSans-6f" x="1742.671875"/>
     <use xlink:href="#DejaVuSans-6d" x="1803.853516"/>
     <use xlink:href="#DejaVuSans-e6" x="1901.265625"/>
     <use xlink:href="#DejaVuSans-6e" x="1999.458984"/>
     <use xlink:href="#DejaVuSans-65" x="2062.837891"/>
     <use xlink:href="#DejaVuSans-74" x="2124.361328"/>
    </g>
    <!-- med Vinduet: Rectangular for længderne 14 og 50.  -->
    <g transform="translate(108.901875 37.394625) scale(0.12 -0.12)">
     <defs>
      <path id="DejaVuSans-56" d="M 1831 0 
L 50 4666 
L 709 4666 
L 2188 738 
L 3669 4666 
L 4325 4666 
L 2547 0 
L 1831 0 
z
" transform="scale(0.015625)"/>
      <path id="DejaVuSans-3a" d="M 750 794 
L 1409 794 
L 1409 0 
L 750 0 
L 750 794 
z
M 750 3309 
L 1409 3309 
L 1409 2516 
L 750 2516 
L 750 3309 
z
" transform="scale(0.015625)"/>
      <path id="DejaVuSans-52" d="M 2841 2188 
Q 3044 2119 3236 1894 
Q 3428 1669 3622 1275 
L 4263 0 
L 3584 0 
L 2988 1197 
Q 2756 1666 2539 1819 
Q 2322 1972 1947 1972 
L 1259 1972 
L 1259 0 
L 628 0 
L 628 4666 
L 2053 4666 
Q 2853 4666 3247 4331 
Q 3641 3997 3641 3322 
Q 3641 2881 3436 2590 
Q 3231 2300 2841 2188 
z
M 1259 4147 
L 1259 2491 
L 2053 2491 
Q 2509 2491 2742 2702 
Q 2975 2913 2975 3322 
Q 2975 3731 2742 3939 
Q 2509 4147 2053 4147 
L 1259 4147 
z
" transform="scale(0.015625)"/>
      <path id="DejaVuSans-63" d="M 3122 3366 
L 3122 2828 
Q 2878 2963 2633 3030 
Q 2388 3097 2138 3097 
Q 1578 3097 1268 2742 
Q 959 2388 959 1747 
Q 959 1106 1268 751 
Q 1578 397 2138 397 
Q 2388 397 2633 464 
Q 2878 531 3122 666 
L 3122 134 
Q 2881 22 2623 -34 
Q 2366 -91 2075 -91 
Q 1284 -91 818 406 
Q 353 903 353 1747 
Q 353 2603 823 3093 
Q 1294 3584 2113 3584 
Q 2378 3584 2631 3529 
Q 2884 3475 3122 3366 
z
" transform="scale(0.015625)"/>
      <path id="DejaVuSans-66" d="M 2375 4863 
L 2375 4384 
L 1825 4384 
Q 1516 4384 1395 4259 
Q 1275 4134 1275 3809 
L 1275 3500 
L 2222 3500 
L 2222 3053 
L 1275 3053 
L 1275 0 
L 697 0 
L 697 3053 
L 147 3053 
L 147 3500 
L 697 3500 
L 697 3744 
Q 697 4328 969 4595 
Q 1241 4863 1831 4863 
L 2375 4863 
z
" transform="scale(0.015625)"/>
     </defs>
     <use xlink:href="#DejaVuSans-6d"/>
     <use xlink:href="#DejaVuSans-65" x="97.412109"/>
     <use xlink:href="#DejaVuSans-64" x="158.935547"/>
     <use xlink:href="#DejaVuSans-20" x="222.412109"/>
     <use xlink:href="#DejaVuSans-56" x="254.199219"/>
     <use xlink:href="#DejaVuSans-69" x="320.357422"/>
     <use xlink:href="#DejaVuSans-6e" x="348.140625"/>
     <use xlink:href="#DejaVuSans-64" x="411.519531"/>
     <use xlink:href="#DejaVuSans-75" x="474.996094"/>
     <use xlink:href="#DejaVuSans-65" x="538.375"/>
     <use xlink:href="#DejaVuSans-74" x="599.898438"/>
     <use xlink:href="#DejaVuSans-3a" x="639.107422"/>
     <use xlink:href="#DejaVuSans-20" x="672.798828"/>
     <use xlink:href="#DejaVuSans-52" x="704.585938"/>
     <use xlink:href="#DejaVuSans-65" x="769.568359"/>
     <use xlink:href="#DejaVuSans-63" x="831.091797"/>
     <use xlink:href="#DejaVuSans-74" x="886.072266"/>
     <use xlink:href="#DejaVuSans-61" x="925.28125"/>
     <use xlink:href="#DejaVuSans-6e" x="986.560547"/>
     <use xlink:href="#DejaVuSans-67" x="1049.939453"/>
     <use xlink:href="#DejaVuSans-75" x="1113.416016"/>
     <use xlink:href="#DejaVuSans-6c" x="1176.794922"/>
     <use xlink:href="#DejaVuSans-61" x="1204.578125"/>
     <use xlink:href="#DejaVuSans-72" x="1265.857422"/>
     <use xlink:href="#DejaVuSans-20" x="1306.970703"/>
     <use xlink:href="#DejaVuSans-66" x="1338.757812"/>
     <use xlink:href="#DejaVuSans-6f" x="1373.962891"/>
     <use xlink:href="#DejaVuSans-72" x="1435.144531"/>
     <use xlink:href="#DejaVuSans-20" x="1476.257812"/>
     <use xlink:href="#DejaVuSans-6c" x="1508.044922"/>
     <use xlink:href="#DejaVuSans-e6" x="1535.828125"/>
     <use xlink:href="#DejaVuSans-6e" x="1634.021484"/>
     <use xlink:href="#DejaVuSans-67" x="1697.400391"/>
     <use xlink:href="#DejaVuSans-64" x="1760.876953"/>
     <use xlink:href="#DejaVuSans-65" x="1824.353516"/>
     <use xlink:href="#DejaVuSans-72" x="1885.876953"/>
     <use xlink:href="#DejaVuSans-6e" x="1925.240234"/>
     <use xlink:href="#DejaVuSans-65" x="1988.619141"/>
     <use xlink:href="#DejaVuSans-20" x="2050.142578"/>
     <use xlink:href="#DejaVuSans-31" x="2081.929688"/>
     <use xlink:href="#DejaVuSans-34" x="2145.552734"/>
     <use xlink:href="#DejaVuSans-20" x="2209.175781"/>
     <use xlink:href="#DejaVuSans-6f" x="2240.962891"/>
     <use xlink:href="#DejaVuSans-67" x="2302.144531"/>
     <use xlink:href="#DejaVuSans-20" x="2365.621094"/>
     <use xlink:href="#DejaVuSans-35" x="2397.408203"/>
     <use xlink:href="#DejaVuSans-30" x="2461.03125"/>
     <use xlink:href="#DejaVuSans-2e" x="2524.654297"/>
     <use xlink:href="#DejaVuSans-20" x="2556.441406"/>
    </g>
    <!--  [Zoomet ind med *10] -->
    <g transform="translate(195.285938 50.832) scale(0.12 -0.12)">
     <defs>
      <path id="DejaVuSans-5a" d="M 359 4666 
L 4025 4666 
L 4025 4184 
L 1075 531 
L 4097 531 
L 4097 0 
L 288 0 
L 288 481 
L 3238 4134 
L 359 4134 
L 359 4666 
z
" transform="scale(0.015625)"/>
      <path id="DejaVuSans-2a" d="M 3009 3897 
L 1888 3291 
L 3009 2681 
L 2828 2375 
L 1778 3009 
L 1778 1831 
L 1422 1831 
L 1422 3009 
L 372 2375 
L 191 2681 
L 1313 3291 
L 191 3897 
L 372 4206 
L 1422 3572 
L 1422 4750 
L 1778 4750 
L 1778 3572 
L 2828 4206 
L 3009 3897 
z
" transform="scale(0.015625)"/>
     </defs>
     <use xlink:href="#DejaVuSans-20"/>
     <use xlink:href="#DejaVuSans-5b" x="31.787109"/>
     <use xlink:href="#DejaVuSans-5a" x="70.800781"/>
     <use xlink:href="#DejaVuSans-6f" x="139.306641"/>
     <use xlink:href="#DejaVuSans-6f" x="200.488281"/>
     <use xlink:href="#DejaVuSans-6d" x="261.669922"/>
     <use xlink:href="#DejaVuSans-65" x="359.082031"/>
     <use xlink:href="#DejaVuSans-74" x="420.605469"/>
     <use xlink:href="#DejaVuSans-20" x="459.814453"/>
     <use xlink:href="#DejaVuSans-69" x="491.601562"/>
     <use xlink:href="#DejaVuSans-6e" x="519.384766"/>
     <use xlink:href="#DejaVuSans-64" x="582.763672"/>
     <use xlink:href="#DejaVuSans-20" x="646.240234"/>
     <use xlink:href="#DejaVuSans-6d" x="678.027344"/>
     <use xlink:href="#DejaVuSans-65" x="775.439453"/>
     <use xlink:href="#DejaVuSans-64" x="836.962891"/>
     <use xlink:href="#DejaVuSans-20" x="900.439453"/>
     <use xlink:href="#DejaVuSans-2a" x="932.226562"/>
     <use xlink:href="#DejaVuSans-31" x="982.226562"/>
     <use xlink:href="#DejaVuSans-30" x="1045.849609"/>
     <use xlink:href="#DejaVuSans-5d" x="1109.472656"/>
    </g>
   </g>
  </g>
 </g>
 <defs>
  <clipPath id="p0d7d28a6af">
   <rect x="78.39" y="56.832" width="371.61" height="230.808"/>
  </clipPath>
 </defs>
</svg>
